<svg width="19" height="19" viewBox="0 0 19 19" fill="none" xmlns="http://www.w3.org/2000/svg">
<path d="M17.4532 4.30485H18.3176C18.5225 4.30485 18.6886 4.13875 18.6886 3.93384C18.6886 3.72893 18.5225 3.56284 18.3176 3.56284H16.6975C16.4926 3.56284 16.3265 3.72893 16.3265 3.93384V5.55391C16.3265 5.75882 16.4926 5.92492 16.6975 5.92492C16.9024 5.92492 17.0685 5.75882 17.0685 5.55391V5.09353C19.0328 8.47183 18.5107 12.8707 15.6912 15.6901C13.2048 18.1766 9.48999 18.9351 6.22737 17.6226C6.03727 17.5461 5.8212 17.6381 5.74469 17.8283C5.66819 18.0184 5.76031 18.2345 5.95042 18.311C7.10302 18.7747 8.30738 19 9.50105 19C11.9725 19 14.3972 18.0335 16.216 16.2149C17.84 14.5908 18.8201 12.4359 18.9757 10.1471C19.1165 8.07704 18.5779 6.02472 17.4532 4.30485Z" fill="#482392"/>
<path d="M4.95798 16.9869L4.94433 16.9786C4.76947 16.8718 4.54112 16.927 4.43434 17.1019C4.32757 17.2768 4.38281 17.5051 4.5577 17.6119L4.57306 17.6213C4.63324 17.6578 4.69961 17.6751 4.76517 17.6751C4.89053 17.6751 5.01293 17.6116 5.08271 17.4965C5.18897 17.3214 5.13317 17.0932 4.95798 16.9869Z" fill="#482392"/>
<path d="M14.085 2.03726L14.103 2.04835C14.1638 2.08594 14.2312 2.10386 14.2978 2.10386C14.4221 2.10386 14.5435 2.04138 14.6137 1.92793C14.7215 1.75366 14.6675 1.52501 14.4933 1.41724L14.4744 1.40562C14.3001 1.29811 14.0715 1.35227 13.9639 1.52672C13.8564 1.70113 13.9106 1.92971 14.085 2.03726Z" fill="#482392"/>
<path d="M2.35239 13.0884C2.14748 13.0884 1.98138 13.2545 1.98138 13.4594V13.9874C-0.0404111 10.5984 0.466531 6.15035 3.30917 3.3077C5.81272 0.804159 9.54756 0.0537633 12.8239 1.39595C13.0136 1.47368 13.2302 1.38285 13.3079 1.19331C13.3856 1.00369 13.2948 0.787018 13.1052 0.709367C11.3936 0.00816669 9.52563 -0.177707 7.70299 0.171891C5.83524 0.530134 4.13444 1.43305 2.7845 2.78299C1.16046 4.40707 0.180337 6.56198 0.0246632 8.85075C-0.117469 10.9407 0.433103 13.0125 1.57999 14.7425H0.698298C0.493392 14.7425 0.327292 14.9086 0.327292 15.1135C0.327292 15.3184 0.493392 15.4845 0.698298 15.4845H2.35235C2.55726 15.4845 2.72336 15.3184 2.72336 15.1135V13.4594C2.72339 13.2545 2.55729 13.0884 2.35239 13.0884Z" fill="#482392"/>
<path d="M9.50001 16.2481C11.2291 16.2481 12.9583 15.5899 14.2746 14.2736C16.9073 11.6408 16.9073 7.35705 14.2746 4.72432C13.1825 3.63216 11.7956 2.96316 10.2639 2.78971C8.77766 2.62135 7.25988 2.955 5.98982 3.72899C5.81485 3.83562 5.75946 4.0639 5.86609 4.23886C5.97275 4.41386 6.20107 4.46918 6.376 4.36259C8.74943 2.91619 11.7817 3.28074 13.75 5.249C16.0934 7.59242 16.0934 11.4054 13.75 13.7488C11.4066 16.0923 7.59352 16.0923 5.25011 13.7488C3.28003 11.7788 2.91667 8.74461 4.36652 6.37032C4.47329 6.19547 4.41813 5.96712 4.24323 5.86034C4.06842 5.75356 3.84006 5.80877 3.73325 5.98363C2.95755 7.25395 2.62276 8.77262 2.79053 10.2599C2.96345 11.7927 3.63252 13.1806 4.72547 14.2736C6.04176 15.5899 7.7709 16.2481 9.50001 16.2481Z" fill="#482392"/>
<path d="M14.4631 9.87586C14.668 9.87586 14.8341 9.70976 14.8341 9.50486C14.8341 9.29995 14.668 9.13385 14.4631 9.13385H14.2383C14.0334 9.13385 13.8673 9.29995 13.8673 9.50486C13.8673 9.70976 14.0334 9.87586 14.2383 9.87586H14.4631Z" fill="#482392"/>
<path d="M4.53699 9.12201C4.33208 9.12201 4.16599 9.28811 4.16599 9.49302C4.16599 9.69792 4.33208 9.86402 4.53699 9.86402H4.76175C4.96665 9.86402 5.13275 9.69792 5.13275 9.49302C5.13275 9.28811 4.96665 9.12201 4.76175 9.12201H4.53699Z" fill="#482392"/>
<path d="M9.87696 4.76065V4.53589C9.87696 4.33099 9.71086 4.16489 9.50596 4.16489C9.30105 4.16489 9.13495 4.33099 9.13495 4.53589V4.76065C9.13495 4.96555 9.30105 5.13165 9.50596 5.13165C9.71086 5.13165 9.87696 4.96555 9.87696 4.76065Z" fill="#482392"/>
<path d="M9.12311 14.2372V14.4619C9.12311 14.6668 9.28921 14.8329 9.49412 14.8329C9.69902 14.8329 9.86512 14.6668 9.86512 14.4619V14.2372C9.86512 14.0323 9.69902 13.8662 9.49412 13.8662C9.28921 13.8662 9.12311 14.0323 9.12311 14.2372Z" fill="#482392"/>
<path d="M7.67771 7.15191C7.53283 7.00703 7.29791 7.00703 7.15303 7.15191C7.00815 7.29679 7.00815 7.53171 7.15303 7.67659L8.38495 8.90847C8.29124 9.08477 8.23789 9.28567 8.23789 9.49889C8.23789 10.1949 8.80408 10.761 9.50005 10.761C10.196 10.761 10.7622 10.1949 10.7622 9.49889C10.7622 9.28567 10.7089 9.08477 10.6151 8.90847L13.1042 6.41944C13.2491 6.27456 13.2491 6.03964 13.1042 5.89476C12.9593 5.74988 12.7245 5.74988 12.5795 5.89476L10.0904 8.38383C9.91413 8.29012 9.71323 8.23677 9.50005 8.23677C9.28683 8.23677 9.08593 8.29012 8.90963 8.38383L7.67771 7.15191ZM10.0202 9.49893C10.0202 9.78571 9.78684 10.0191 9.50001 10.0191C9.21319 10.0191 8.97986 9.78571 8.97986 9.49893C8.97986 9.21214 9.21322 8.97878 9.50001 8.97878C9.7868 8.97878 10.0202 9.21214 10.0202 9.49893Z" fill="#482392"/>
<path d="M4.97797 5.3675C5.18287 5.3675 5.34897 5.20139 5.34897 4.99649C5.34897 4.79159 5.18287 4.62549 4.97797 4.62549C4.77307 4.62549 4.60696 4.79159 4.60696 4.99649C4.60696 5.20139 4.77307 5.3675 4.97797 5.3675Z" fill="#482392"/>
</svg>
