<svg width="24" height="24" viewBox="0 0 24 24" fill="none" xmlns="http://www.w3.org/2000/svg">
<path d="M4.44112 13.8836C4.02783 14.1288 3.75 14.5793 3.75 15.0938C3.75 15.8692 4.38084 16.5 5.15625 16.5C5.76731 16.5 6.28837 16.1081 6.48187 15.5625H10.125C10.9004 15.5625 11.5312 16.1933 11.5312 16.9688C11.5312 17.7442 10.9004 18.375 10.125 18.375H4.5C3.20766 18.375 2.15625 19.4264 2.15625 20.7188C2.15625 22.0111 3.20766 23.0625 4.5 23.0625H9.1875C9.44639 23.0625 9.65625 22.8526 9.65625 22.5938C9.65625 22.3349 9.44639 22.125 9.1875 22.125H4.5C3.72459 22.125 3.09375 21.4942 3.09375 20.7188C3.09375 19.9433 3.72459 19.3125 4.5 19.3125H10.125C11.4173 19.3125 12.4688 18.2611 12.4688 16.9688C12.4688 15.6764 11.4173 14.625 10.125 14.625H6.48187C6.37102 14.3124 6.15267 14.0505 5.87138 13.8836L9.45159 8.00944C10.0148 7.16287 10.3125 6.17644 10.3125 5.15625C10.3125 2.31309 7.99941 0 5.15625 0C2.31309 0 0 2.31309 0 5.15625C0 6.17644 0.297703 7.16287 0.860906 8.00944L4.44112 13.8836ZM5.15625 15.5625C4.89778 15.5625 4.6875 15.3522 4.6875 15.0938C4.6875 14.8353 4.89778 14.625 5.15625 14.625C5.41472 14.625 5.625 14.8353 5.625 15.0938C5.625 15.3522 5.41472 15.5625 5.15625 15.5625ZM5.15625 0.9375C7.48247 0.9375 9.375 2.83003 9.375 5.15625C9.375 5.99381 9.12998 6.8032 8.66648 7.49695C8.66288 7.50234 8.65936 7.50783 8.65598 7.51341L5.15625 13.2555C5.15625 13.2555 1.64963 7.50234 1.64602 7.49695C1.18252 6.8032 0.9375 5.99381 0.9375 5.15625C0.9375 2.83003 2.83003 0.9375 5.15625 0.9375Z" fill="#482392"/>
<path d="M5.15625 7.5C6.44859 7.5 7.5 6.44859 7.5 5.15625C7.5 3.86391 6.44859 2.8125 5.15625 2.8125C3.86391 2.8125 2.8125 3.86391 2.8125 5.15625C2.8125 6.44859 3.86391 7.5 5.15625 7.5ZM5.15625 3.75C5.93166 3.75 6.5625 4.38084 6.5625 5.15625C6.5625 5.93166 5.93166 6.5625 5.15625 6.5625C4.38084 6.5625 3.75 5.93166 3.75 5.15625C3.75 4.38084 4.38084 3.75 5.15625 3.75Z" fill="#482392"/>
<path d="M18.8438 7.78125C16.0006 7.78125 13.6875 10.0943 13.6875 12.9375C13.6875 13.9593 13.9861 14.9473 14.5511 15.7947L18.118 21.3897C17.8418 21.5568 17.6276 21.8163 17.5182 22.125H13.4062C13.1474 22.125 12.9375 22.3349 12.9375 22.5938C12.9375 22.8526 13.1474 23.0625 13.4062 23.0625H17.5181C17.7116 23.6081 18.2326 24 18.8438 24C19.6192 24 20.25 23.3692 20.25 22.5938C20.25 22.0837 19.977 21.6363 19.5696 21.3897L23.1364 15.7947C23.7014 14.9473 24 13.9593 24 12.9375C24 10.0943 21.6869 7.78125 18.8438 7.78125ZM18.8438 23.0625C18.5853 23.0625 18.375 22.8522 18.375 22.5938C18.375 22.3353 18.5853 22.125 18.8438 22.125C19.1022 22.125 19.3125 22.3353 19.3125 22.5938C19.3125 22.8522 19.1022 23.0625 18.8438 23.0625ZM22.354 15.2782C22.3522 15.281 18.8438 20.7842 18.8438 20.7842C18.8438 20.7842 15.3353 15.281 15.3335 15.2782C14.87 14.5845 14.625 13.7751 14.625 12.9375C14.625 10.6113 16.5175 8.71875 18.8438 8.71875C21.17 8.71875 23.0625 10.6113 23.0625 12.9375C23.0625 13.7751 22.8175 14.5845 22.354 15.2782Z" fill="#482392"/>
<path d="M18.8438 10.5938C17.5514 10.5938 16.5 11.6452 16.5 12.9375C16.5 14.2298 17.5514 15.2812 18.8438 15.2812C20.1361 15.2812 21.1875 14.2298 21.1875 12.9375C21.1875 11.6452 20.1361 10.5938 18.8438 10.5938ZM18.8438 14.3438C18.0683 14.3438 17.4375 13.7129 17.4375 12.9375C17.4375 12.1621 18.0683 11.5312 18.8438 11.5312C19.6192 11.5312 20.25 12.1621 20.25 12.9375C20.25 13.7129 19.6192 14.3438 18.8438 14.3438Z" fill="#482392"/>
<path d="M11.2969 23.0625C11.5558 23.0625 11.7656 22.8526 11.7656 22.5938C11.7656 22.3349 11.5558 22.125 11.2969 22.125C11.038 22.125 10.8281 22.3349 10.8281 22.5938C10.8281 22.8526 11.038 23.0625 11.2969 23.0625Z" fill="#482392"/>
</svg>
