<svg width="53" height="57" viewBox="0 0 53 57" fill="none" xmlns="http://www.w3.org/2000/svg">
<path d="M3.83468 30.1306C6.50001 35.3567 8.5214 40.0929 10.1452 43.9015C13.5674 51.9264 15.6327 56.7699 19.598 56.7699C23.8041 56.7699 24.2642 53.4821 24.2642 46.5043C24.2642 37.8737 25.1097 37.1719 26.1307 37.1719C27.1516 37.1719 27.9972 37.8737 27.9972 46.5043C27.9972 53.4821 28.4572 56.7699 32.6633 56.7699C36.6287 56.7699 38.6939 51.9264 42.1161 43.9015C43.74 40.0929 45.7613 35.3539 48.4267 30.1306L48.7393 29.5184C50.3949 26.3015 52.2614 22.6544 52.2614 18.5071C52.2614 8.56438 45.7026 0.775574 37.3295 0.775574C34.1019 0.812375 30.9668 1.85862 28.3639 3.76754C27.6984 4.19746 26.923 4.42615 26.1307 4.42615C25.3384 4.42615 24.5629 4.19746 23.8974 3.76754C21.2946 1.85862 18.1594 0.812375 14.9318 0.775574C6.5588 0.775574 0 8.56438 0 18.5071C0 22.6544 1.87114 26.3015 3.52204 29.5193L3.83468 30.1306ZM14.9318 2.64205C17.7508 2.67253 20.4897 3.58428 22.7645 5.24952C25.5199 7.06741 28.766 7.99788 32.0661 7.91578C34.397 7.90234 36.7103 7.51122 38.916 6.75763L38.3253 4.98448C35.2492 6.07647 31.9376 6.32871 28.7316 5.71521C29.0012 5.5853 29.2572 5.42899 29.4959 5.24859C31.7711 3.5835 34.5103 2.67207 37.3295 2.64205C44.6564 2.64205 50.3949 9.61054 50.3949 18.5071C50.3949 22.2037 48.6329 25.637 47.0791 28.6663L46.7636 29.2813C44.0694 34.5635 42.0349 39.3351 40.3999 43.1689C37.3865 50.2372 35.3959 54.9034 32.6633 54.9034C30.6317 54.9034 29.8636 54.1792 29.8636 46.5043C29.8636 38.6072 29.3448 35.3054 26.1307 35.3054C22.9166 35.3054 22.3977 38.6072 22.3977 46.5043C22.3977 54.1792 21.6297 54.9034 19.598 54.9034C16.8655 54.9034 14.8749 50.2372 11.8615 43.1689C10.2264 39.3351 8.19197 34.5635 5.49771 29.2813L5.18227 28.6663C3.62843 25.637 1.86648 22.2037 1.86648 18.5071C1.86648 9.61054 7.60496 2.64205 14.9318 2.64205Z" fill="#AB99EF"/>
</svg>
