<svg width="108" height="107" viewBox="0 0 108 107" fill="none" xmlns="http://www.w3.org/2000/svg">
<g clip-path="url(#clip0)">
<path d="M30.5103 42.4501C31.2927 42.4501 31.9271 41.816 31.9271 41.0334V38.021C31.9271 37.2384 31.2927 36.6043 30.5103 36.6043C29.7279 36.6043 29.0936 37.2384 29.0936 38.021V41.0334C29.0936 41.8158 29.7277 42.4501 30.5103 42.4501Z" fill="#AB99EF"/>
<path d="M73.9574 71.0602C74.352 71.9661 75.2455 72.5515 76.2338 72.5515C77.2221 72.5515 78.1154 71.9659 78.51 71.06C79.0992 69.7078 80.1683 68.6387 81.5207 68.0497C82.4266 67.6551 83.012 66.7616 83.012 65.7733C83.012 64.7853 82.4266 63.8916 81.5207 63.497C80.1685 62.908 79.0994 61.8391 78.5102 60.4868C78.1156 59.5808 77.2221 58.9954 76.2338 58.9954C75.2458 58.9954 74.3521 59.5808 73.9575 60.4869C73.3686 61.8391 72.2996 62.908 70.9471 63.497C70.0411 63.8916 69.4557 64.7851 69.4557 65.7733C69.4557 66.7616 70.0411 67.6551 70.9471 68.0497C72.2992 68.6385 73.3682 69.7076 73.9574 71.0602ZM76.2336 62.2788C77.0343 63.7621 78.2448 64.9727 79.728 65.7733C78.2446 66.574 77.0343 67.7843 76.2336 69.2677C75.4328 67.7843 74.2226 66.5738 72.7392 65.7733C74.2226 64.9725 75.433 63.7623 76.2336 62.2788Z" fill="#AB99EF"/>
<path d="M94.5157 49.6965C93.7413 49.5994 93.0312 50.1489 92.9335 50.9256C90.2633 72.1805 82.6913 92.2387 74.0915 100.838C72.326 102.604 69.9818 103.574 67.4859 103.574H67.4479C62.3418 103.554 58.1679 99.2778 58.1435 94.0417C58.0931 83.0809 52.7943 80.7801 48.358 80.7801C43.9219 80.7801 38.6231 83.0809 38.5725 94.0415C38.5483 99.2776 34.3742 103.554 29.2681 103.574H29.2302C26.7346 103.574 24.39 102.603 22.6244 100.838C22.1 100.314 21.5692 99.7359 21.0469 99.1208C20.5403 98.5245 19.6464 98.4518 19.0498 98.958C18.4535 99.4644 18.3804 100.358 18.8868 100.955C19.4588 101.628 20.0421 102.263 20.6207 102.842C22.9217 105.143 25.9769 106.408 29.2296 106.408H29.2793C35.9343 106.381 41.3744 100.84 41.4058 94.0548C41.454 83.6136 46.6504 83.6136 48.3578 83.6136C50.0653 83.6136 55.2617 83.6136 55.3099 94.0548C55.3414 100.84 60.7815 106.381 67.4366 106.408H67.4861C70.7385 106.408 73.7943 105.143 76.0949 102.842C80.6974 98.2392 85.0177 90.709 88.5889 81.0648C91.9208 72.0666 94.4621 61.4885 95.7447 51.2785C95.8424 50.5025 95.2921 49.7941 94.5157 49.6965Z" fill="#AB99EF"/>
<path d="M92.9938 23.3177C93.0626 23.2856 93.1306 23.2524 93.2004 23.222C94.2579 22.7614 94.9145 21.759 94.9145 20.6057C94.9143 19.4525 94.2573 18.4502 93.2004 17.9899C91.2639 17.1462 89.7327 15.615 88.889 13.6783C88.4285 12.621 87.4262 11.9644 86.273 11.9644C85.1197 11.9644 84.1175 12.6212 83.6569 13.6783C83.6276 13.7453 83.5957 13.8107 83.5649 13.8768C79.6262 11.555 75.1842 10.3234 70.6244 10.3089C66.0576 10.2979 61.5705 11.4708 57.6292 13.7106C51.9104 16.9596 44.8056 16.9596 39.0869 13.7106C35.1687 11.4842 30.7056 10.3087 26.1738 10.3087C26.1464 10.3087 26.119 10.3089 26.0916 10.3089C19.2142 10.3304 12.7112 13.0806 7.78072 18.0524C2.72636 23.1493 -0.0366568 29.882 0.000367316 37.0112C0.0611926 48.6995 2.19499 62.2427 5.86756 74.333C5.27763 74.7429 4.64519 75.0988 3.97498 75.3906C2.77189 75.9145 2.0246 77.0552 2.02442 78.3675C2.02442 79.6796 2.7717 80.8205 3.97479 81.3447C6.53248 82.4588 8.55464 84.481 9.66876 87.0387C10.0054 87.8119 10.5976 88.3952 11.3254 88.7144C12.4654 91.1295 13.6636 93.3683 14.8931 95.3723C15.1604 95.8081 15.6257 96.0482 16.1021 96.0482C16.3546 96.0482 16.6104 95.9808 16.8416 95.8389C17.5086 95.4298 17.7175 94.5574 17.3082 93.8904C16.3027 92.2517 15.317 90.4438 14.367 88.503C14.9101 88.1649 15.3501 87.6643 15.6225 87.0389C16.7366 84.4812 18.7587 82.459 21.3166 81.3449C22.5197 80.8209 23.267 79.68 23.267 78.3677C23.267 77.0554 22.5195 75.9148 21.3166 75.3908C18.7589 74.2769 16.7368 72.2547 15.6227 69.6969C15.0986 68.4938 13.9579 67.7465 12.6458 67.7465C11.3335 67.7465 10.1928 68.4938 9.66876 69.6969C9.27869 70.5922 8.77508 71.4202 8.17854 72.1684C4.82748 60.6785 2.89089 47.9924 2.83366 36.9965C2.80041 30.6253 5.27177 24.6062 9.79249 20.0477C14.1893 15.6139 19.9809 13.1616 26.1003 13.1424C26.1248 13.1424 26.149 13.1422 26.1736 13.1422C30.2153 13.1422 34.195 14.19 37.6869 16.174C37.9573 16.3276 38.2312 16.4724 38.5066 16.6136C37.5819 17.6546 36.9684 18.6197 36.2919 19.6839L36.1629 19.8868C35.7428 20.5468 35.9374 21.4225 36.5974 21.8426C36.8333 21.9928 37.0966 22.0644 37.3568 22.0644C37.825 22.0644 38.2833 21.8324 38.5534 21.4082L38.6834 21.2036C39.4677 19.9693 40.1113 18.9585 41.2915 17.7976C45.8581 19.3692 50.8579 19.3692 55.4243 17.7976C56.6048 18.9587 57.2483 19.9699 58.0328 21.2042L58.1626 21.4082C58.4327 21.8324 58.8908 22.0644 59.3591 22.0644C59.6194 22.0644 59.8827 21.9928 60.1186 21.8426C60.7787 21.4223 60.973 20.5468 60.5531 19.8868L60.4245 19.6847C59.7478 18.62 59.1343 17.6549 58.2094 16.6136C58.4849 16.4726 58.759 16.3276 59.0293 16.174C62.5424 14.1779 66.5446 13.1289 70.6159 13.1424C74.5998 13.1548 78.4847 14.2121 81.9445 16.2091C81.2073 16.9551 80.3291 17.5614 79.3457 17.9899C78.2884 18.45 77.6318 19.4525 77.6316 20.6057C77.6316 21.7588 78.2884 22.7613 79.3455 23.222C81.2823 24.0656 82.8135 25.5966 83.6571 27.5334C84.1176 28.5907 85.1199 29.2473 86.2732 29.2473C87.4262 29.2473 88.4287 28.5905 88.8892 27.5334C89.3163 26.553 89.92 25.6771 90.6628 24.9411C92.7939 28.6139 93.9047 32.7493 93.8824 36.9965C93.8701 39.3892 93.769 41.8923 93.582 44.436C93.5246 45.2164 94.1107 45.8955 94.8911 45.9527C94.9266 45.9553 94.9615 45.9565 94.9965 45.9565C95.7319 45.9565 96.3533 45.3885 96.4079 44.6436C96.5997 42.0359 96.7034 39.468 96.716 37.0112C96.7408 32.1784 95.4553 27.4765 92.9938 23.3177ZM12.2667 70.8284C12.3562 70.6228 12.5223 70.58 12.646 70.58C12.7695 70.58 12.9358 70.623 13.0251 70.8284C14.4262 74.0445 16.9689 76.5875 20.1853 77.9884C20.3905 78.0779 20.4337 78.244 20.4337 78.3675C20.4337 78.4912 20.3905 78.6575 20.1853 78.747C16.9691 80.1479 14.4262 82.6908 13.0251 85.907C12.9356 86.1125 12.7695 86.1554 12.646 86.1554C12.6322 86.1554 12.6178 86.1546 12.6033 86.1533C12.5806 86.149 12.558 86.1452 12.5349 86.142C12.4354 86.118 12.3311 86.0549 12.2667 85.9068C10.8656 82.6904 8.32286 80.1477 5.10667 78.7468C4.90134 78.6573 4.85808 78.491 4.85808 78.3673C4.85808 78.2438 4.90134 78.0777 5.10648 77.9882C8.32286 76.5875 10.8656 74.0447 12.2667 70.8284ZM92.0688 20.6242C89.4735 21.7546 87.4215 23.8066 86.2911 26.4019L87.59 26.9676L86.2905 26.4111C86.2824 26.4147 86.263 26.4147 86.2546 26.4019C85.1243 23.8066 83.0721 21.7546 80.4676 20.6237C80.4638 20.6157 80.4638 20.5961 80.4768 20.5878C82.4193 19.7417 84.0572 18.3792 85.2327 16.6553C85.2348 16.6523 85.2371 16.6496 85.2391 16.6466C85.2399 16.6455 85.2403 16.6445 85.241 16.6434C85.6326 16.0674 85.9726 15.4514 86.2552 14.8007C86.263 14.7967 86.2826 14.7973 86.2911 14.8099C87.4217 17.4054 89.4737 19.4574 92.0782 20.5884C92.082 20.5961 92.0818 20.6156 92.0688 20.6242Z" fill="#AB99EF"/>
<path d="M67.6224 41.0334V38.021C67.6224 37.2384 66.9883 36.6043 66.2057 36.6043C65.4231 36.6043 64.789 37.2384 64.789 38.021V41.0334C64.789 41.816 65.4231 42.4501 66.2057 42.4501C66.9883 42.4501 67.6224 41.8158 67.6224 41.0334Z" fill="#AB99EF"/>
<path d="M48.358 49.84C51.9429 49.84 54.8597 46.9233 54.8597 43.3384V39.6416C54.8597 38.0949 53.6014 36.8368 52.0547 36.8368H44.6613C43.1146 36.8368 41.8565 38.0949 41.8565 39.6416V43.3384C41.8563 46.9233 44.7729 49.84 48.358 49.84ZM44.6896 39.6703H52.026V43.3384C52.026 45.3611 50.3805 47.0066 48.3578 47.0066C46.3351 47.0066 44.6896 45.3611 44.6896 43.3384V39.6703Z" fill="#AB99EF"/>
</g>
<circle cx="91.1194" cy="16.1194" r="16.1194" fill="url(#paint0_linear)"/>
<path d="M92.4419 14.6205H97.1182V17.3524H92.4419V22.6809H89.5377V17.3524H84.8368V14.6205H89.5377V9.63657H92.4419V14.6205Z" fill="white"/>
<defs>
<linearGradient id="paint0_linear" x1="59.5006" y1="16.1194" x2="91.1194" y2="32.2388" gradientUnits="userSpaceOnUse">
<stop offset="0.334452" stop-color="#5B4090"/>
<stop offset="1" stop-color="#AB99EF"/>
</linearGradient>
<clipPath id="clip0">
<rect width="96.7164" height="96.7164" fill="white" transform="translate(0 10)"/>
</clipPath>
</defs>
</svg>
