<svg width="39" height="39" viewBox="0 0 39 39" fill="none" xmlns="http://www.w3.org/2000/svg">
<path d="M12.2135 12.99C12.5268 12.99 12.7807 12.7362 12.7807 12.4229V11.217C12.7807 10.9037 12.5268 10.6499 12.2135 10.6499C11.9003 10.6499 11.6464 10.9037 11.6464 11.217V12.4229C11.6464 12.7361 11.9003 12.99 12.2135 12.99Z" fill="#AB99EF"/>
<path d="M29.6058 24.4429C29.7637 24.8055 30.1214 25.0399 30.517 25.0399C30.9127 25.0399 31.2703 24.8055 31.4282 24.4428C31.6641 23.9015 32.0921 23.4735 32.6334 23.2378C32.9961 23.0798 33.2304 22.7221 33.2304 22.3265C33.2304 21.931 32.9961 21.5733 32.6334 21.4153C32.0922 21.1795 31.6642 20.7516 31.4283 20.2102C31.2703 19.8476 30.9127 19.6132 30.517 19.6132C30.1216 19.6132 29.7638 19.8476 29.6058 20.2103C29.3701 20.7516 28.9421 21.1795 28.4007 21.4153C28.0381 21.5733 27.8037 21.9309 27.8037 22.3265C27.8037 22.7221 28.0381 23.0798 28.4007 23.2378C28.942 23.4735 29.3699 23.9014 29.6058 24.4429ZM30.517 20.9276C30.8375 21.5214 31.3221 22.006 31.9158 22.3265C31.322 22.647 30.8375 23.1315 30.517 23.7253C30.1964 23.1315 29.7119 22.6469 29.1181 22.3265C29.7119 22.0059 30.1965 21.5215 30.517 20.9276Z" fill="#AB99EF"/>
<path d="M37.8355 15.8908C37.5254 15.8519 37.2412 16.0719 37.2021 16.3829C36.1332 24.8914 33.102 32.9208 29.6595 36.3632C28.9527 37.07 28.0143 37.4585 27.0152 37.4585H27C24.956 37.4505 23.2851 35.7386 23.2754 33.6426C23.2552 29.2549 21.134 28.3339 19.3581 28.3339C17.5823 28.3339 15.4612 29.2549 15.4409 33.6425C15.4312 35.7386 13.7603 37.4503 11.7163 37.4585H11.7011C10.7021 37.4585 9.76353 37.0699 9.05673 36.3632C8.84682 36.1533 8.63433 35.922 8.42525 35.6758C8.22244 35.4371 7.86462 35.408 7.62582 35.6106C7.38709 35.8134 7.35783 36.1712 7.56056 36.41C7.78953 36.6796 8.02304 36.9338 8.25465 37.1653C9.17575 38.0863 10.3988 38.5928 11.7009 38.5928H11.7207C14.3848 38.5822 16.5625 36.3638 16.5751 33.6478C16.5944 29.4681 18.6745 29.4681 19.3581 29.4681C20.0416 29.4681 22.1217 29.4681 22.141 33.6478C22.1536 36.3639 24.3314 38.5822 26.9954 38.5928H27.0153C28.3172 38.5928 29.5405 38.0863 30.4615 37.1653C32.3039 35.3229 34.0333 32.3085 35.4629 28.4478C36.7967 24.8458 37.814 20.6112 38.3274 16.5241C38.3665 16.2135 38.1463 15.9299 37.8355 15.8908Z" fill="#AB99EF"/>
<path d="M37.2262 5.33117C37.2537 5.31832 37.281 5.30501 37.3089 5.29284C37.7323 5.10848 37.9951 4.70718 37.9951 4.24553C37.995 3.78389 37.732 3.38266 37.3089 3.19838C36.5337 2.86067 35.9208 2.24771 35.583 1.4724C35.3987 1.04917 34.9975 0.786324 34.5358 0.786324C34.0742 0.786324 33.6729 1.04925 33.4886 1.4724C33.4769 1.49925 33.4641 1.52541 33.4518 1.55188C31.8751 0.622461 30.0969 0.129433 28.2716 0.123611C26.4434 0.119225 24.6472 0.588735 23.0694 1.48533C20.7802 2.78596 17.9361 2.78596 15.6468 1.48533C14.0783 0.594104 12.2917 0.123535 10.4776 0.123535C10.4666 0.123535 10.4557 0.123611 10.4447 0.123611C7.6916 0.132231 5.08839 1.23315 3.11469 3.22341C1.09139 5.26372 -0.014674 7.95889 0.00014704 10.8128C0.0244959 15.4917 0.878674 20.9132 2.34883 25.753C2.11268 25.9171 1.85951 26.0596 1.59122 26.1764C1.10961 26.3861 0.810466 26.8427 0.810391 27.3681C0.810391 27.8933 1.10953 28.35 1.59114 28.5599C2.61501 29.0059 3.4245 29.8154 3.87049 30.8392C4.00524 31.1487 4.2423 31.3822 4.53366 31.51C4.99001 32.4768 5.46965 33.373 5.96185 34.1752C6.06885 34.3497 6.25509 34.4458 6.4458 34.4458C6.5469 34.4458 6.64929 34.4188 6.74184 34.362C7.00885 34.1982 7.09248 33.849 6.92862 33.582C6.52611 32.926 6.13153 32.2023 5.75125 31.4254C5.96865 31.2901 6.14477 31.0897 6.25381 30.8393C6.6998 29.8154 7.50929 29.0059 8.53323 28.5599C9.01484 28.3502 9.31398 27.8935 9.31398 27.3681C9.31398 26.8428 9.01476 26.3862 8.53323 26.1765C7.50936 25.7306 6.69988 24.9211 6.25388 23.8971C6.04412 23.4155 5.58746 23.1164 5.06222 23.1164C4.53691 23.1164 4.08025 23.4155 3.87049 23.8971C3.71434 24.2556 3.51274 24.587 3.27394 24.8865C1.93248 20.287 1.15725 15.2087 1.13434 10.8069C1.12103 8.25644 2.11034 5.84696 3.92002 4.02216C5.6801 2.24726 7.99853 1.26559 10.4482 1.25788C10.458 1.25788 10.4677 1.2578 10.4775 1.2578C12.0954 1.2578 13.6885 1.67725 15.0864 2.47146C15.1946 2.53294 15.3043 2.59094 15.4145 2.64743C15.0444 3.06416 14.7988 3.45049 14.528 3.87652L14.4763 3.95773C14.3082 4.22194 14.386 4.5725 14.6502 4.74068C14.7447 4.80079 14.8501 4.82945 14.9542 4.82945C15.1417 4.82945 15.3251 4.73659 15.4333 4.56676L15.4853 4.48486C15.7993 3.99078 16.0569 3.58615 16.5293 3.1214C18.3574 3.75054 20.3589 3.75054 22.1868 3.1214C22.6594 3.58622 22.917 3.991 23.231 4.48509L23.283 4.56676C23.3911 4.73659 23.5745 4.82945 23.762 4.82945C23.8662 4.82945 23.9716 4.80079 24.066 4.74068C24.3302 4.57243 24.408 4.22194 24.2399 3.95773L24.1884 3.87682C23.9176 3.45064 23.672 3.06431 23.3017 2.64743C23.412 2.59102 23.5217 2.53294 23.6299 2.47146C25.0363 1.67241 26.6384 1.25251 28.2682 1.25788C29.8629 1.26287 31.4181 1.6861 32.8031 2.48553C32.508 2.78414 32.1564 3.02688 31.7628 3.19838C31.3395 3.38258 31.0767 3.78389 31.0766 4.24553C31.0766 4.7071 31.3395 5.10841 31.7627 5.29284C32.538 5.63055 33.151 6.24343 33.4887 7.01874C33.673 7.44197 34.0742 7.70481 34.5359 7.70481C34.9975 7.70481 35.3988 7.44189 35.5831 7.01874C35.7541 6.62628 35.9958 6.27564 36.2931 5.98103C37.1462 7.45127 37.5908 9.10669 37.5819 10.8069C37.577 11.7647 37.5366 12.7667 37.4617 13.785C37.4387 14.0974 37.6733 14.3692 37.9857 14.3921C37.9999 14.3932 38.0139 14.3937 38.0279 14.3937C38.3223 14.3937 38.5711 14.1663 38.5929 13.8681C38.6697 12.8242 38.7112 11.7963 38.7163 10.8128C38.7262 8.87817 38.2116 6.99597 37.2262 5.33117ZM4.91046 24.3501C4.9463 24.2678 5.01277 24.2506 5.0623 24.2506C5.11175 24.2506 5.1783 24.2679 5.21406 24.3501C5.77492 25.6376 6.79281 26.6555 8.08035 27.2163C8.16247 27.2521 8.17979 27.3186 8.17979 27.3681C8.17979 27.4176 8.16247 27.4841 8.08035 27.52C6.79289 28.0808 5.77492 29.0987 5.21406 30.3862C5.17822 30.4685 5.11175 30.4856 5.0623 30.4856C5.05678 30.4856 5.05103 30.4853 5.04521 30.4848C5.03614 30.4831 5.02706 30.4815 5.01784 30.4803C4.97799 30.4707 4.93624 30.4454 4.91046 30.3861C4.3496 29.0986 3.33171 28.0807 2.04425 27.5199C1.96205 27.4841 1.94473 27.4175 1.94473 27.368C1.94473 27.3185 1.96205 27.2521 2.04417 27.2162C3.33171 26.6555 4.3496 25.6376 4.91046 24.3501ZM36.8559 4.25294C35.817 4.70544 34.9956 5.52687 34.5431 6.56579L35.063 6.79226L34.5428 6.56949C34.5396 6.57093 34.5318 6.57093 34.5285 6.56579C34.076 5.52687 33.2545 4.70544 32.2119 4.25272C32.2103 4.24954 32.2103 4.24168 32.2156 4.23835C32.9931 3.89966 33.6488 3.35423 34.1194 2.66414C34.1202 2.66293 34.1211 2.66187 34.122 2.66066C34.1223 2.66021 34.1224 2.65983 34.1227 2.65937C34.2795 2.42882 34.4156 2.18223 34.5287 1.92172C34.5318 1.92014 34.5397 1.92036 34.5431 1.92543C34.9956 2.96442 35.8171 3.78585 36.8597 4.23857C36.8612 4.24168 36.8611 4.24946 36.8559 4.25294Z" fill="#AB99EF"/>
<path d="M27.0698 12.4229V11.217C27.0698 10.9037 26.816 10.6499 26.5027 10.6499C26.1894 10.6499 25.9356 10.9037 25.9356 11.217V12.4229C25.9356 12.7362 26.1894 12.99 26.5027 12.99C26.816 12.99 27.0698 12.7361 27.0698 12.4229Z" fill="#AB99EF"/>
<path d="M19.3581 15.9483C20.7932 15.9483 21.9608 14.7807 21.9608 13.3456V11.8658C21.9608 11.2466 21.4571 10.743 20.838 10.743H17.8783C17.2591 10.743 16.7555 11.2466 16.7555 11.8658V13.3456C16.7554 14.7807 17.923 15.9483 19.3581 15.9483ZM17.8896 11.8773H20.8265V13.3456C20.8265 14.1553 20.1678 14.814 19.358 14.814C18.5483 14.814 17.8896 14.1553 17.8896 13.3456V11.8773Z" fill="#AB99EF"/>
</svg>
