<svg width="87" height="56" viewBox="0 0 87 56" fill="none" xmlns="http://www.w3.org/2000/svg">
<path d="M33.5937 26.6365C33.8474 26.4984 33.8994 26.1355 33.7098 25.8258L32.98 24.6336C32.7904 24.3239 32.4311 24.1849 32.1774 24.323C31.9238 24.4611 31.8717 24.8241 32.0613 25.1338L32.7912 26.326C32.9807 26.6356 33.34 26.7747 33.5937 26.6365Z" fill="#AB99EF"/>
<path d="M56.3484 28.0079C56.7122 28.3074 57.1641 28.384 57.4996 28.2032C57.8351 28.0223 57.9899 27.6186 57.894 27.1748C57.751 26.5123 57.8427 25.878 58.1524 25.3889C58.3598 25.0613 58.3319 24.5876 58.0812 24.1822C57.8305 23.7769 57.405 23.5174 56.9974 23.5213C56.3889 23.5271 55.7547 23.2842 55.2116 22.8373C54.8478 22.5378 54.3959 22.4612 54.0604 22.642C53.7249 22.8228 53.5701 23.2265 53.666 23.6704C53.8091 24.3329 53.7173 24.967 53.4076 25.4561C53.2001 25.7838 53.2281 26.2574 53.4788 26.6628C53.7295 27.0682 54.1549 27.3277 54.5626 27.3238C55.1711 27.3179 55.8052 27.5609 56.3484 28.0079ZM54.8933 23.989C55.5415 24.451 56.2596 24.7261 56.9662 24.7831C56.6658 25.383 56.5619 26.101 56.6664 26.8561C56.0182 26.3941 55.3002 26.1189 54.5935 26.062C54.894 25.4621 54.9979 24.7441 54.8933 23.989Z" fill="#AB99EF"/>
<path d="M56.8625 15.3692C56.5696 15.473 56.4661 15.835 56.633 16.1778C61.2017 25.5579 63.7663 35.3516 63.0148 40.5483C62.8605 41.6152 62.3007 42.4577 61.4377 42.923L61.4246 42.9301C59.6539 43.8735 57.1058 42.8645 55.7444 40.6809C52.8948 36.1098 50.4682 36.1361 48.9342 36.963C47.4004 37.7899 46.1627 39.7392 48.9773 44.329C50.3219 46.5217 49.9835 49.0867 48.2233 50.047L48.2101 50.0541C47.3473 50.5193 46.2857 50.5507 45.2191 50.1421C44.9023 50.0207 44.5695 49.8782 44.2299 49.7185C43.9007 49.5637 43.5728 49.7 43.4974 50.0227C43.422 50.3455 43.6278 50.7328 43.957 50.8876C44.3287 51.0624 44.6945 51.2191 45.044 51.3529C46.4341 51.8855 47.8174 51.8446 48.9421 51.2383L48.9592 51.2291C51.2535 49.9775 51.7027 46.6476 49.9604 43.8064C47.2792 39.4341 49.0759 38.4654 49.6663 38.1472C50.2567 37.8289 52.0535 36.8602 54.768 41.2146C56.5321 44.0441 59.8449 45.3459 62.1528 44.1163L62.1699 44.1071C63.2945 43.5008 64.0243 42.4025 64.2252 41.0122C64.6274 38.2309 64.1755 34.2787 62.9183 29.5827C61.7454 25.2013 59.8908 20.307 57.6962 15.8012C57.5295 15.4587 57.1562 15.2653 56.8625 15.3692Z" fill="#AB99EF"/>
<path d="M50.1957 6.17652C50.211 6.15058 50.2257 6.12431 50.2419 6.09887C50.4858 5.71373 50.4542 5.17857 50.1594 4.70214C49.8646 4.22574 49.3838 3.93273 48.9047 3.93731C48.0268 3.94566 47.1118 3.59524 46.3283 2.95056C45.9005 2.59863 45.39 2.51207 44.9955 2.72459C44.6011 2.93711 44.4262 3.39316 44.5389 3.91474C44.546 3.94784 44.5518 3.98072 44.5582 4.01371C42.6177 3.78035 40.7838 4.0901 39.2206 4.92438C37.656 5.76144 36.4212 7.07288 35.6456 8.72452C34.5202 11.1207 32.0903 12.43 29.3042 12.1415C27.3952 11.9438 25.5684 12.2806 24.0185 13.1157C24.0091 13.1208 23.9998 13.1259 23.9904 13.131C21.6438 14.4072 20.1227 16.7418 19.7071 19.7044C19.2811 22.7415 20.0569 26.0322 21.8916 28.9707C24.8996 33.7883 29.0906 38.9903 33.4365 43.3084C33.3395 43.5864 33.2142 43.85 33.0596 44.0941C32.782 44.5322 32.818 45.1412 33.1533 45.6834C33.4886 46.2254 34.0358 46.5591 34.5812 46.5539C35.7407 46.5429 36.9491 47.0057 37.9838 47.857C38.2965 48.1144 38.6481 48.2463 38.9786 48.244C39.9857 49.0317 40.9677 49.7358 41.9004 50.3372C42.1031 50.4679 42.3236 50.4814 42.4866 50.3936C42.5729 50.3471 42.6432 50.2721 42.686 50.1708C42.8095 49.8789 42.658 49.48 42.3476 49.2799C41.5849 48.7882 40.7857 48.2229 39.9648 47.5962C40.0642 47.3564 40.0867 47.0685 40.02 46.7599C39.7474 45.498 39.9221 44.2899 40.5122 43.3582C40.7897 42.92 40.7537 42.311 40.4183 41.7688C40.0829 41.2267 39.5358 40.8932 38.9905 40.8984C37.8311 40.9095 36.6227 40.4468 35.5879 39.5953C35.1012 39.1949 34.5201 39.0964 34.0714 39.3381C33.6226 39.58 33.4234 40.0989 33.5517 40.6925C33.6471 41.1343 33.6865 41.5692 33.6737 41.9882C29.5911 37.8589 25.6866 32.9747 22.8568 28.4425C21.2171 25.8165 20.524 22.8744 20.9051 20.158C21.2756 17.516 22.6296 15.4356 24.7175 14.3C24.7259 14.2954 24.7341 14.2909 24.7425 14.2864C26.1248 13.5416 27.7537 13.2411 29.455 13.4172C29.5867 13.4309 29.7174 13.4402 29.8476 13.4478C29.7974 14.0483 29.8343 14.56 29.8749 15.1244L29.8826 15.232C29.9076 15.582 30.198 15.908 30.5311 15.9599C30.6502 15.9785 30.7585 15.9595 30.8475 15.9116C31.0076 15.8253 31.1051 15.645 31.089 15.42L31.0812 15.3115C31.034 14.6571 30.9957 14.1209 31.1027 13.4237C33.0661 13.2315 34.776 12.3101 35.9361 10.8193C36.6366 11.0815 37.1151 11.3806 37.6988 11.746L37.7954 11.8064C37.9962 11.9319 38.2121 11.9433 38.3723 11.857C38.4613 11.809 38.5331 11.7309 38.5754 11.6254C38.6937 11.3301 38.5364 10.9326 38.2241 10.7373L38.1284 10.6775C37.6249 10.3624 37.1685 10.0767 36.586 9.8169C36.6442 9.70793 36.7009 9.59749 36.7541 9.48423C37.4454 8.01217 38.5461 6.84128 39.9419 6.09655C41.3076 5.36755 42.9064 5.08843 44.6001 5.27588C44.5386 5.71993 44.3932 6.13227 44.1664 6.49049C43.9224 6.87543 43.954 7.41059 44.2487 7.88706C44.5434 8.36342 45.0242 8.65654 45.5035 8.65208C46.3815 8.64369 47.2964 8.99404 48.0799 9.63872C48.5076 9.99064 49.0182 10.0772 49.4126 9.86469C49.807 9.6522 49.982 9.19612 49.8693 8.67454C49.7648 8.1908 49.7474 7.71767 49.8134 7.27676C51.4809 8.40136 52.9176 9.90513 53.9955 11.6639C54.6028 12.6547 55.2079 13.7074 55.7941 14.7928C55.9739 15.1257 56.3479 15.2983 56.6294 15.1781C56.6422 15.1727 56.6545 15.1667 56.6664 15.1603C56.9179 15.0247 56.9853 14.6755 56.8136 14.3578C56.2127 13.2451 55.5919 12.1651 54.9683 11.1478C53.7417 9.14665 52.1004 7.44103 50.1957 6.17652ZM34.7294 40.6812C34.7075 40.5798 34.7533 40.5315 34.7956 40.5087C34.8378 40.486 34.9057 40.4731 34.9887 40.5415C36.2899 41.612 37.8094 42.194 39.2674 42.18C39.3605 42.1792 39.4177 42.2398 39.4493 42.2909C39.4809 42.342 39.5086 42.4186 39.4613 42.4934C38.7194 43.6649 38.4996 45.1841 38.8424 46.771C38.8643 46.8724 38.8185 46.9207 38.7762 46.9434C38.7715 46.946 38.7664 46.9483 38.7611 46.9505C38.7523 46.9528 38.7435 46.9555 38.7348 46.9584C38.6947 46.9668 38.6429 46.96 38.583 46.9106C37.2818 45.84 35.7623 45.2581 34.3044 45.2721C34.2113 45.2729 34.154 45.2122 34.1224 45.1611C34.0908 45.1101 34.0631 45.0335 34.1104 44.9587C34.8524 43.7873 35.0722 42.2682 34.7294 40.6812ZM49.1909 5.23421C48.5922 6.17946 48.4149 7.40536 48.6916 8.68586L49.2804 8.68023L48.6937 8.68979C48.6919 8.69277 48.6852 8.69635 48.6791 8.69258C47.6292 7.82869 46.403 7.35912 45.2232 7.37186C45.2198 7.36928 45.2148 7.36116 45.2172 7.35533C45.6652 6.64783 45.8772 5.78308 45.8386 4.85426C45.8386 4.85263 45.8387 4.85112 45.8386 4.84949C45.8386 4.84888 45.8385 4.84842 45.8384 4.84782C45.8252 4.53771 45.784 4.22056 45.7144 3.89963C45.716 3.89657 45.7229 3.89318 45.729 3.89684C46.779 4.76078 48.0052 5.23038 49.185 5.21764C49.1883 5.22014 49.1932 5.22822 49.1909 5.23421Z" fill="#AB99EF"/>
<path d="M47.1341 18.0753L46.4042 16.8831C46.2146 16.5734 45.8554 16.4344 45.6017 16.5725C45.348 16.7107 45.296 17.0736 45.4856 17.3833L46.2154 18.5755C46.405 18.8852 46.7643 19.0242 47.018 18.8861C47.2717 18.7479 47.3236 18.3849 47.1341 18.0753Z" fill="#AB99EF"/>
<path d="M42.0747 25.7051C43.2918 25.0491 43.542 23.3189 42.6325 21.8482L41.6946 20.3317C41.3022 19.6973 40.5559 19.4114 40.0308 19.6944L37.5206 21.0473C36.9955 21.3303 36.8876 22.0766 37.28 22.7111L38.2179 24.2276C39.1273 25.6983 40.8575 26.3611 42.0747 25.7051ZM38.2491 22.2045L40.7399 20.862L41.6705 22.3668C42.1837 23.1965 42.0425 24.1727 41.3558 24.5428C40.669 24.9129 39.6929 24.539 39.1797 23.7092L38.2491 22.2045Z" fill="#AB99EF"/>
</svg>
